<svg xmlns="http://www.w3.org/2000/svg" height="512" viewBox="0 0 512 512" width="512" fill="#130C49"><g><g><path d="m484.5 80h-65.461v-25.5c0-4.142-3.358-7.5-7.5-7.5s-7.5 3.358-7.5 7.5v25.5h-88.692v-25.5c0-4.142-3.358-7.5-7.5-7.5s-7.5 3.358-7.5 7.5v25.5h-88.692v-25.5c0-4.142-3.358-7.5-7.5-7.5s-7.5 3.358-7.5 7.5v25.5h-36.785c-4.142 0-7.5 3.358-7.5 7.5s3.358 7.5 7.5 7.5h36.785v15.088c-10.97 3.243-19 13.405-19 25.412 0 14.612 11.888 26.5 26.5 26.5s26.5-11.888 26.5-26.5c0-12.008-8.03-22.169-19-25.412v-15.088h88.692v15.088c-10.97 3.243-19 13.405-19 25.412 0 14.612 11.888 26.5 26.5 26.5s26.5-11.888 26.5-26.5c0-12.008-8.03-22.169-19-25.412v-15.088h88.692v15.088c-10.97 3.243-19 13.405-19 25.412 0 14.612 11.888 26.5 26.5 26.5s26.5-11.888 26.5-26.5c0-12.008-8.03-22.169-19-25.412v-15.088h65.461c6.893 0 12.5 5.607 12.5 12.5v52.5c0 4.142 3.358 7.5 7.5 7.5s7.5-3.358 7.5-7.5v-52.5c0-15.164-12.336-27.5-27.5-27.5zm-268.846 55.5c0 6.341-5.159 11.5-11.5 11.5s-11.5-5.159-11.5-11.5c0-3.475 1.556-6.588 4-8.699v1.699c0 4.142 3.358 7.5 7.5 7.5s7.5-3.358 7.5-7.5v-1.699c2.444 2.111 4 5.224 4 8.699zm103.692 0c0 6.341-5.159 11.5-11.5 11.5s-11.5-5.159-11.5-11.5c0-3.475 1.556-6.588 4-8.699v1.699c0 4.142 3.358 7.5 7.5 7.5s7.5-3.358 7.5-7.5v-1.699c2.445 2.111 4 5.224 4 8.699zm103.693 0c0 6.341-5.159 11.5-11.5 11.5s-11.5-5.159-11.5-11.5c0-3.475 1.556-6.588 4-8.699v1.699c0 4.142 3.358 7.5 7.5 7.5s7.5-3.358 7.5-7.5v-1.699c2.444 2.111 4 5.224 4 8.699z"></path><path d="m504.5 184.928c-4.142 0-7.5 3.358-7.5 7.5v245.072c0 6.893-5.607 12.5-12.5 12.5h-457c-6.893 0-12.5-5.607-12.5-12.5v-330c0-6.893 5.607-12.5 12.5-12.5h65.461v15.088c-10.97 3.243-19 13.405-19 25.412 0 14.612 11.888 26.5 26.5 26.5s26.5-11.888 26.5-26.5c0-12.008-8.03-22.169-19-25.412v-15.088h19.907c4.142 0 7.5-3.358 7.5-7.5s-3.358-7.5-7.5-7.5h-19.907v-25.5c0-4.142-3.358-7.5-7.5-7.5s-7.5 3.358-7.5 7.5v25.5h-65.461c-15.164 0-27.5 12.336-27.5 27.5v330c0 15.164 12.336 27.5 27.5 27.5h457c15.164 0 27.5-12.336 27.5-27.5v-245.072c0-4.142-3.358-7.5-7.5-7.5zm-392.539-49.428c0 6.341-5.159 11.5-11.5 11.5s-11.5-5.159-11.5-11.5c0-3.475 1.556-6.588 4-8.699v1.699c0 4.142 3.358 7.5 7.5 7.5s7.5-3.358 7.5-7.5v-1.699c2.445 2.111 4 5.224 4 8.699z"></path><path d="m165 203.5h-32c-11.855 0-21.5 9.645-21.5 21.5v29.5h-10.5c-10.752 0-19.5 8.748-19.5 19.5v56c0 10.752 8.748 19.5 19.5 19.5h10.5v29.5c0 11.855 9.645 21.5 21.5 21.5h32c11.855 0 21.5-9.645 21.5-21.5v-43.791h17.369c4.142 0 7.5-3.358 7.5-7.5s-3.358-7.5-7.5-7.5h-17.369v-36.418h139v36.418h-88.98c-4.142 0-7.5 3.358-7.5 7.5s3.358 7.5 7.5 7.5h88.98v43.791c0 11.855 9.645 21.5 21.5 21.5h32c11.855 0 21.5-9.645 21.5-21.5v-29.5h10.5c10.752 0 19.5-8.748 19.5-19.5v-56c0-10.752-8.748-19.5-19.5-19.5h-10.5v-29.5c0-11.855-9.645-21.5-21.5-21.5h-32c-11.855 0-21.5 9.645-21.5 21.5v43.791h-139v-43.791c0-11.855-9.645-21.5-21.5-21.5zm246 66c2.481 0 4.5 2.019 4.5 4.5v56c0 2.481-2.019 4.5-4.5 4.5h-10.5v-65zm-70.5-44.5c0-3.584 2.916-6.5 6.5-6.5h32c3.584 0 6.5 2.916 6.5 6.5v154c0 3.584-2.916 6.5-6.5 6.5h-32c-3.584 0-6.5-2.916-6.5-6.5zm-239.5 109.5c-2.481 0-4.5-2.019-4.5-4.5v-56c0-2.481 2.019-4.5 4.5-4.5h10.5v65zm70.5 44.5c0 3.584-2.916 6.5-6.5 6.5h-32c-3.584 0-6.5-2.916-6.5-6.5v-154c0-3.584 2.916-6.5 6.5-6.5h32c3.584 0 6.5 2.916 6.5 6.5z"></path></g></g></svg>