<svg id="line_color" height="512" viewBox="0 0 74 74" width="512" xmlns="http://www.w3.org/2000/svg" data-name="line color"><rect fill="#e1e6e9" height="68" rx="3.778" width="38.722" x="17.639" y="3"/><path d="m53.36 58.33h3v8.83a3.777 3.777 0 0 1 -3.78 3.78h-31.16a3.774 3.774 0 0 1 -3.63-2.73 3.36 3.36 0 0 0 .63.06h31.16a3.775 3.775 0 0 0 3.78-3.77z" fill="#d5d6db"/><path d="m53.36 15.273v-11.223a3.6 3.6 0 0 0 -.15-1.05 3.765 3.765 0 0 1 3.15 3.72v8.553z" fill="#d5d6db"/><path d="m53.36 12.417h3v45.583h-3z" fill="#9a9eaf"/><path d="m17.64 12.33h38.72v46h-38.72z" fill="#FFF"/><path d="m53.36 12.33h3v46h-3z" fill="#f2f2fa"/><g fill="#130c49"><path d="m32.69 7.87a.513.513 0 0 1 -.5-.5.508.508 0 0 1 .15-.36.534.534 0 0 1 .71 0 .543.543 0 0 1 .14.36.5.5 0 0 1 -.14.35.508.508 0 0 1 -.36.15z"/><path d="m37 7.87a.433.433 0 0 1 -.19-.04.457.457 0 0 1 -.16-.11.469.469 0 0 1 -.15-.35.508.508 0 0 1 .15-.36.521.521 0 0 1 .7 0 .508.508 0 0 1 .15.36.469.469 0 0 1 -.15.35.509.509 0 0 1 -.35.15z"/><path d="m41.31 7.87a.509.509 0 0 1 -.35-.15.483.483 0 0 1 0-.7.5.5 0 0 1 .7 0 .483.483 0 0 1 0 .7.509.509 0 0 1 -.35.15z"/></g><rect fill="#9297ab" height="3.021" rx="1.51" width="5.726" x="34.137" y="63.292"/><g fill="#130c49"><path d="m38.353 66.813h-2.706a2.011 2.011 0 0 1 0-4.021h2.706a2.011 2.011 0 0 1 0 4.021zm-2.706-3.021a1.011 1.011 0 0 0 0 2.021h2.706a1.011 1.011 0 0 0 0-2.021z"/><path d="m59.361 57.5a.5.5 0 0 1 -.5-.5v-9.417a.5.5 0 0 1 1 0v9.417a.5.5 0 0 1 -.5.5z"/><path d="m14.639 10.021a.5.5 0 0 1 -.5-.5v-.721a.5.5 0 0 1 1 0v.719a.5.5 0 0 1 -.5.502z"/><path d="m14.639 7.278a.5.5 0 0 1 -.5-.5 7.32 7.32 0 0 1 7.1-7.27.511.511 0 0 1 .511.492.5.5 0 0 1 -.488.512 6.314 6.314 0 0 0 -6.123 6.27.5.5 0 0 1 -.5.496z"/><path d="m59.361 45.479a.5.5 0 0 1 -.5-.5v-1.291a.5.5 0 0 1 1 0v1.291a.5.5 0 0 1 -.5.5z"/><path d="m52.583 71.5h-31.166a4.283 4.283 0 0 1 -4.278-4.278v-60.444a4.283 4.283 0 0 1 4.278-4.278h31.166a4.283 4.283 0 0 1 4.278 4.278v60.444a4.283 4.283 0 0 1 -4.278 4.278zm-31.166-68a3.281 3.281 0 0 0 -3.278 3.278v60.444a3.281 3.281 0 0 0 3.278 3.278h31.166a3.281 3.281 0 0 0 3.278-3.278v-60.444a3.281 3.281 0 0 0 -3.278-3.278z"/></g><g fill="#e1e6e9" opacity=".4"><path d="m38.85 12.33-12.68 46h-4.55l12.68-46z"/><path d="m42.87 12.33-12.69 46h-1.47l12.68-46z"/><path d="m47.88 12.33-12.69 46h-2.77l12.68-46z"/></g><path d="m56.361 58.829h-38.722a.5.5 0 0 1 -.5-.5v-46a.5.5 0 0 1 .5-.5h38.722a.5.5 0 0 1 .5.5v46a.5.5 0 0 1 -.5.5zm-38.222-1h37.722v-45h-37.722z" fill="#130c49"/><path d="m48.225 33.157a6.4 6.4 0 0 0 -3.5-.323 7.765 7.765 0 0 0 -4.616 2.966c-1.424-1.5-4.011-3.015-7.575-.251a18.544 18.544 0 0 0 -.177-8.032 1.7 1.7 0 0 0 1.34-.67s1.07 1.284 1.629.828 3.089-2.633 2.978-3.3-1.741-3.481-3.7-3.081c-.07.012-.139.027-.211.043a10.093 10.093 0 0 0 -7.193 6.338 41.417 41.417 0 0 0 -2.611 10.631 3.491 3.491 0 0 0 .967 2.745 14.278 14.278 0 0 0 15.83 3.631 10.675 10.675 0 0 0 1.852 1.033 6.662 6.662 0 0 0 4.672.353c5.34-1.568 6.757-10.74.315-12.911z" fill="#fcd462"/><path d="m51.7 42.71a6.265 6.265 0 0 0 -4.23-7.05 6.383 6.383 0 0 0 -3.49-.33 7.8 7.8 0 0 0 -4.62 2.97c-1.42-1.5-4.01-3.01-7.58-.25.2-.61.5-1.48.75-2.5 3.57-2.76 6.16-1.25 7.58.25a7.8 7.8 0 0 1 4.62-2.97 6.383 6.383 0 0 1 3.49.33c4.39 1.48 5.13 6.19 3.48 9.55z" fill="#f7be56"/><path d="m32.075 36.424a.5.5 0 0 1 -.325-.88c.163-.139.333-.277.49-.393a.5.5 0 0 1 .591.807c-.139.1-.288.224-.432.347a.5.5 0 0 1 -.324.119z" fill="#130c49"/><path d="m41.386 38.057a.5.5 0 0 1 -.447-.276 7.689 7.689 0 0 0 -1.189-1.631.5.5 0 1 1 .723-.69 8.61 8.61 0 0 1 1.36 1.873.5.5 0 0 1 -.447.724z" fill="#130c49"/><path d="m46.04 46.838a7.2 7.2 0 0 1 -3.012-.669 12.667 12.667 0 0 1 -1.712-.927 14.827 14.827 0 0 1 -16.116-3.842 4 4 0 0 1 -1.109-3.136 41.73 41.73 0 0 1 2.638-10.764 10.564 10.564 0 0 1 7.548-6.652c.081-.018.161-.036.239-.049a2.738 2.738 0 0 1 2.126.518 5.953 5.953 0 0 1 2.158 2.975c.188 1.131-3.026 3.672-3.162 3.779-.657.535-1.482-.058-1.963-.517a2.34 2.34 0 0 1 -.71.377 19.1 19.1 0 0 1 .264 6.539 5.359 5.359 0 0 1 6.842.594 8.2 8.2 0 0 1 4.552-2.718 6.98 6.98 0 0 1 3.762.337 6.617 6.617 0 0 1 4.622 6.717 7.449 7.449 0 0 1 -4.958 7.152 7.162 7.162 0 0 1 -2.009.286zm-4.656-2.656a.5.5 0 0 1 .3.1 10.314 10.314 0 0 0 1.758.978 6.138 6.138 0 0 0 4.326.328 6.446 6.446 0 0 0 4.239-6.212 5.66 5.66 0 0 0 -3.942-5.745 5.869 5.869 0 0 0 -3.236-.308 7.3 7.3 0 0 0 -4.325 2.785.5.5 0 0 1 -.37.2.494.494 0 0 1 -.388-.156c-1.388-1.459-3.712-2.678-6.907-.2a.5.5 0 0 1 -.8-.5 17.92 17.92 0 0 0 -.173-7.813.5.5 0 0 1 .111-.448.508.508 0 0 1 .43-.166 1.262 1.262 0 0 0 .912-.507.525.525 0 0 1 .381-.165.5.5 0 0 1 .375.178 2.555 2.555 0 0 0 .963.747 12.646 12.646 0 0 0 2.771-2.878 5.348 5.348 0 0 0 -1.734-2.257 1.777 1.777 0 0 0 -1.376-.36c-.076.013-.136.026-.2.041a9.565 9.565 0 0 0 -6.835 6.024 40.754 40.754 0 0 0 -2.582 10.5 3 3 0 0 0 .827 2.355 13.854 13.854 0 0 0 15.291 3.512.507.507 0 0 1 .184-.033z" fill="#130c49"/><path d="m21.664 28.95v9.594a.672.672 0 0 1 -1.344 0v-9.594a.672.672 0 0 1 1.344 0z" fill="#fff"/><path d="m21.664 25.61v.527a.672.672 0 0 1 -1.344 0v-.527a.672.672 0 1 1 1.344 0z" fill="#fff"/></svg>