<svg id="line_color" height="512" viewBox="0 0 74 74" width="512" xmlns="http://www.w3.org/2000/svg" data-name="line color"><path d="m62.271 20.9a9.862 9.862 0 0 1 3.393 3.8c4.016 8.8 4.4 15.59 5.3 25.592a8.314 8.314 0 0 1 -2.32 6.6c-5.337 5.463-18.931 16.163-38.075 8.73a25.494 25.494 0 0 1 -4.452 2.5 16.065 16.065 0 0 1 -11.237.848c-16.912-5.996-14.492-25.289-.761-31.063a15.365 15.365 0 0 1 8.418-.774 18.655 18.655 0 0 1 11.1 7.134c3.43-3.6 9.653-7.246 18.221-.6-1.4-3.043-4.739-10.064-3.143-18.52" fill="#fcd462"/><path d="m52.96 45.064a.5.5 0 0 1 -.324-.119c-.36-.307-.733-.613-1.079-.866a.5.5 0 1 1 .589-.808c.367.267.759.59 1.138.912a.5.5 0 0 1 -.324.881z" fill="#323c6b"/><path d="m30.568 48.99a.494.494 0 0 1 -.223-.053.5.5 0 0 1 -.224-.671 19.81 19.81 0 0 1 3.15-4.334.5.5 0 1 1 .723.69 19.05 19.05 0 0 0 -2.978 4.092.5.5 0 0 1 -.448.276z" fill="#323c6b"/><path d="m68.64 56.89c-5.33 5.46-18.93 16.16-38.07 8.73a25.733 25.733 0 0 1 -4.45 2.49 16.094 16.094 0 0 1 -11.24.85 21.011 21.011 0 0 1 -5.55-2.89c.45.19.92.37 1.4.54a16.035 16.035 0 0 0 11.24-.84 26.1 26.1 0 0 0 4.45-2.5c19.14 7.44 32.74-3.27 38.08-8.73a8.354 8.354 0 0 0 2.32-6.6c-.9-10-1.29-16.78-5.3-25.59a6.765 6.765 0 0 0 -.6-1.03l1.35-.42a9.763 9.763 0 0 1 3.39 3.8c4.02 8.8 4.41 15.59 5.3 25.59a8.3 8.3 0 0 1 -2.32 6.6z" fill="#f7be56"/><g fill="#323c6b"><path d="m65.383 64.167a.5.5 0 0 1 -.3-.9c.247-.181.489-.363.725-.543a.5.5 0 0 1 .609.793q-.362.278-.744.557a.5.5 0 0 1 -.29.093z"/><path d="m52.5 70.467a.5.5 0 0 1 -.13-.983 37.759 37.759 0 0 0 10.511-4.811.5.5 0 0 1 .572.821 38.3 38.3 0 0 1 -10.823 4.956.484.484 0 0 1 -.13.017z"/><path d="m19.383 70.105a16.694 16.694 0 0 1 -4.642-.664c-7.473-2.641-12.041-8.294-12.234-15.12-.207-7.135 4.383-13.921 11.419-16.875 4.359-1.455 7.061-1.153 8.715-.8a19.122 19.122 0 0 1 11.037 6.869c3.079-3.035 8.965-6.6 16.959-1.335-1.545-3.559-3.784-9.861-2.413-17.123a.5.5 0 1 1 .982.186c-1.534 8.126 1.54 14.813 3.018 18.026l.088.193a.5.5 0 0 1 -.761.6c-8.1-6.282-14.014-3.169-17.552.549a.5.5 0 0 1 -.758-.04 18.234 18.234 0 0 0 -10.809-6.95 14.8 14.8 0 0 0 -8.155.759c-6.623 2.787-10.965 9.187-10.771 15.912.188 6.493 4.394 11.667 11.541 14.2a15.472 15.472 0 0 0 10.861-.831 25.376 25.376 0 0 0 4.36-2.439.5.5 0 0 1 .482-.067c19.053 7.4 32.6-3.558 37.537-8.613a7.823 7.823 0 0 0 2.179-6.2l-.161-1.815c-.791-8.958-1.364-15.43-5.1-23.614a9.349 9.349 0 0 0 -3.177-3.573.5.5 0 1 1 .479-.877 10.389 10.389 0 0 1 3.608 4.035c3.8 8.34 4.382 14.884 5.182 23.941l.161 1.813a8.816 8.816 0 0 1 -2.458 6.986c-5.057 5.174-18.883 16.362-38.36 8.944a28.016 28.016 0 0 1 -4.319 2.385 16.586 16.586 0 0 1 -6.938 1.538z"/></g><circle cx="54.558" cy="14.527" fill="#9297ab" r="13.356"/><circle cx="54.558" cy="14.527" fill="#e1e6e9" r="5.438"/><path d="m67.911 14.529a13.309 13.309 0 0 1 -5.923 11.092 13.356 13.356 0 0 0 -18.261-18.914 13.355 13.355 0 0 1 24.184 7.822z" fill="#84879c"/><g fill="#323c6b"><path d="m54.559 28.384a13.857 13.857 0 1 1 13.855-13.857 13.872 13.872 0 0 1 -13.855 13.857zm0-26.713a12.857 12.857 0 1 0 12.855 12.856 12.871 12.871 0 0 0 -12.855-12.856z"/><path d="m41.437 37.535a.5.5 0 0 1 -.041-1c.473-.039.956-.054 1.425-.047a.5.5 0 1 1 -.017 1q-.666-.012-1.325.043a.3.3 0 0 1 -.042.004z"/><path d="m45.743 36.66a.5.5 0 0 1 -.485-.381 33.018 33.018 0 0 1 -.37-8.818.5.5 0 1 1 1 .078 31.236 31.236 0 0 0 .345 8.5.5.5 0 0 1 -.368.6.476.476 0 0 1 -.122.021z"/></g><path d="m8.518 50.133a.962.962 0 0 1 .11.68l-.2.82a.917.917 0 0 1 -.89.88.9.9 0 0 1 -.909-.89l.25-1.23a.9.9 0 0 1 1.08-.66.913.913 0 0 1 .559.4z" fill="#fff"/><path d="m20.028 41.133a.939.939 0 0 1 -.25.64.9.9 0 0 1 -.63.28 9.534 9.534 0 0 0 -1.26.12 10.83 10.83 0 0 0 -4.831 2.07 12.34 12.34 0 0 0 -3.25 3.63.9.9 0 0 1 -.779.44.92.92 0 0 1 -.45-.12.9.9 0 0 1 -.32-1.23 14.248 14.248 0 0 1 3.71-4.16 12.715 12.715 0 0 1 5.629-2.41 11.635 11.635 0 0 1 1.51-.14.891.891 0 0 1 .921.88z" fill="#fff"/></svg>