<svg id="line_color" height="512" viewBox="0 0 74 74" width="512" xmlns="http://www.w3.org/2000/svg" data-name="line color"><path d="m32.363 17.869a84.592 84.592 0 0 1 20.81 3.38l-1.373 8.463a84.61 84.61 0 0 1 -20.81-3.352z" fill="#e1e6e9"/><path d="m32.155 20.119a84.511 84.511 0 0 1 20.661 3.34l.357-2.21a84.592 84.592 0 0 0 -20.81-3.38l-1.373 8.491.149.04z" fill="#d5d6db"/><g fill="#130C49"><path d="m35.125 55.651a.5.5 0 0 1 -.037-1l.787-.063a.5.5 0 1 1 .083 1l-.8.064z"/><path d="m28.532 55.92c-1.036 0-2.08-.026-3.135-.066a.5.5 0 0 1 -.48-.519.484.484 0 0 1 .519-.48c1.041.039 2.073.065 3.1.065 1.114 0 3.111-.031 4.2-.077a.5.5 0 1 1 .042 1c-1.105.045-3.122.077-4.246.077z"/><path d="m13.19 16.06a.5.5 0 0 1 -.449-.718c.155-.32.322-.632.5-.933a.5.5 0 1 1 .857.515q-.249.416-.461.854a.5.5 0 0 1 -.447.282z"/><path d="m15.333 13.011a.5.5 0 0 1 -.358-.848 12.316 12.316 0 0 1 6.773-3.579.5.5 0 0 1 .171.986 11.316 11.316 0 0 0 -6.227 3.289.5.5 0 0 1 -.359.152z"/><path d="m51.805 30.212h-.023a84.747 84.747 0 0 1 -20.928-3.37.5.5 0 0 1 -.358-.561l1.373-8.491a.511.511 0 0 1 .517-.42 84.8 84.8 0 0 1 20.924 3.4.5.5 0 0 1 .357.56l-1.367 8.462a.5.5 0 0 1 -.495.42zm-20.25-4.212a83.35 83.35 0 0 0 19.827 3.193l1.226-7.583a83.38 83.38 0 0 0 -19.823-3.22z"/></g><circle cx="23.914" cy="20.858" fill="#e1e6e9" r="8.96"/><circle cx="60.254" cy="26.735" fill="#e1e6e9" r="8.96"/><path d="m25.345 12.012a8.962 8.962 0 0 0 -9.774 5.588 8.957 8.957 0 0 1 15.407 8.773 8.959 8.959 0 0 0 -5.633-14.357z" fill="#d5d6db"/><path d="m61.685 17.89a8.952 8.952 0 0 0 -8.648 3.546 8.952 8.952 0 0 1 12.345 12.64 8.955 8.955 0 0 0 -3.7-16.186z" fill="#d5d6db"/><path d="m23.92 30.318a9.46 9.46 0 1 1 9.333-7.95l-.493-.08.493.08a9.474 9.474 0 0 1 -9.333 7.95zm-.02-17.918a8.461 8.461 0 1 0 8.37 9.812 8.47 8.47 0 0 0 -7-9.7 8.556 8.556 0 0 0 -1.37-.112z" fill="#130C49"/><path d="m60.26 36.2a9.461 9.461 0 1 1 9.333-7.95 9.476 9.476 0 0 1 -9.333 7.95zm-.024-17.923a8.461 8.461 0 1 0 8.37 9.813 8.469 8.469 0 0 0 -7-9.7 8.567 8.567 0 0 0 -1.37-.117z" fill="#130C49"/><path d="m55.013 29.08a.65.65 0 0 1 -.634-.509 6.038 6.038 0 0 1 -.135-1.6.65.65 0 0 1 1.3.064 4.7 4.7 0 0 0 .105 1.258.65.65 0 0 1 -.494.775.676.676 0 0 1 -.142.012z" fill="#fff"/><path d="m60.3 33.315a6.059 6.059 0 0 1 -4.589-2.1.65.65 0 1 1 .984-.85 4.76 4.76 0 0 0 4.334 1.591.65.65 0 1 1 .2 1.284 5.918 5.918 0 0 1 -.929.075z" fill="#fff"/><path d="m18.12 43.91a84.614 84.614 0 0 1 21.082.209l-.079 8.572a84.6 84.6 0 0 1 -21.082-.179z" fill="#e1e6e9"/><path d="m18.253 46.166a84.52 84.52 0 0 1 20.928.191l.021-2.238a84.614 84.614 0 0 0 -21.082-.209l-.079 8.6c.052.006.1.01.153.017z" fill="#d5d6db"/><path d="m29.243 53.766a89.28 89.28 0 0 1 -11.264-.758.5.5 0 0 1 -.438-.5l.079-8.6a.5.5 0 0 1 .447-.493 84.81 84.81 0 0 1 21.2.21.5.5 0 0 1 .437.5l-.081 8.575a.5.5 0 0 1 -.446.492 91.5 91.5 0 0 1 -9.934.574zm-10.7-1.7a83.407 83.407 0 0 0 20.083.171l.074-7.677a83.331 83.331 0 0 0 -20.082-.2z" fill="#130C49"/><circle cx="10.218" cy="48.137" fill="#e1e6e9" r="8.96"/><circle cx="47.028" cy="48.476" fill="#e1e6e9" r="8.96"/><path d="m10.3 39.177a8.96 8.96 0 0 0 -8.822 6.991 8.958 8.958 0 0 1 16.552 6.354 8.959 8.959 0 0 0 -7.73-13.345z" fill="#d5d6db"/><path d="m47.111 39.517a8.953 8.953 0 0 0 -8.011 4.807 8.952 8.952 0 0 1 14.1 10.638 8.955 8.955 0 0 0 -6.092-15.445z" fill="#d5d6db"/><g fill="#130C49"><path d="m10.219 57.6h-.088a9.46 9.46 0 1 1 9.547-9.373 9.472 9.472 0 0 1 -9.459 9.373zm0-17.92a8.423 8.423 0 1 0 .081 0z"/><path d="m47.03 57.937h-.089a9.46 9.46 0 1 1 9.547-9.373 9.471 9.471 0 0 1 -9.458 9.373zm0-17.921a8.46 8.46 0 0 0 -.076 16.92 8.3 8.3 0 0 0 6-2.422 8.46 8.46 0 0 0 -5.849-14.5z"/></g></svg>