<svg id="line_color" height="512" viewBox="0 0 74 74" width="512" xmlns="http://www.w3.org/2000/svg" data-name="line color"><g fill="#bbbbcd"><path d="m30.446 20.48 5.102-1.785 1.669 4.788-6.843 2.402-11.463 3.972-4.957 1.749-1.669-4.788 4.83-1.695z"/><rect height="16.685" rx="1.445" transform="matrix(.945 -.328 .328 .945 -4.408 14.021)" width="6.21" x="36.206" y="11.72"/><path d="m44.957 15.776h.094a0 0 0 0 1 0 0v5.586a0 0 0 0 1 0 0h-.094a2.793 2.793 0 0 1 -2.793-2.793 2.793 2.793 0 0 1 2.793-2.793z" transform="matrix(-.945 .328 -.328 -.945 90.894 21.789)"/></g><path d="m43.217 22.154a.546.546 0 0 1 -.529-.309l-1.834-5.277a.5.5 0 0 1 .31-.636 3.327 3.327 0 0 1 2.6.116 3.293 3.293 0 0 1 -.353 6.075.611.611 0 0 1 -.194.031zm-1.241-5.407 1.482 4.264a2.294 2.294 0 0 0 -1.482-4.264z" fill="#130c49"/><rect fill="#bbbbcd" height="16.685" rx="1.445" transform="matrix(-.945 .328 -.328 -.945 29.743 55.435)" width="6.21" x="7.086" y="21.886"/><path d="m44.51 25.56-.57-1.64a1.439 1.439 0 0 1 -.95 1.14l-3.14 1.09a1.429 1.429 0 0 1 -1.787-.775h-.2l.777 2.225a1.451 1.451 0 0 0 1.84.89l3.14-1.09a1.451 1.451 0 0 0 .89-1.84z" fill="#9297ab"/><path d="m15.39 35.72-.57-1.64a1.453 1.453 0 0 1 -.95 1.15l-3.321 1.09a1.451 1.451 0 0 1 -1.836-.882l.807 2.322a1.439 1.439 0 0 0 1.84.89l3.14-1.09a1.447 1.447 0 0 0 .89-1.84z" fill="#9297ab"/><path d="m44.957 15.776h.094a0 0 0 0 1 0 0v5.586a0 0 0 0 1 0 0h-.094a2.793 2.793 0 0 1 -2.793-2.793 2.793 2.793 0 0 1 2.793-2.793z" fill="#bbbbcd" transform="matrix(-.945 .328 -.328 -.945 90.894 21.789)"/><path d="m43.217 22.154a.546.546 0 0 1 -.529-.309l-1.834-5.277a.5.5 0 0 1 .31-.636 3.327 3.327 0 0 1 2.6.116 3.293 3.293 0 0 1 -.353 6.075.611.611 0 0 1 -.194.031zm-1.241-5.407 1.482 4.264a2.294 2.294 0 0 0 -1.482-4.264z" fill="#130c49"/><path d="m7.245 28.929h.094a0 0 0 0 1 0 0v5.586a0 0 0 0 1 0 0h-.094a2.793 2.793 0 0 1 -2.793-2.793 2.793 2.793 0 0 1 2.793-2.793z" fill="#bbbbcd" transform="matrix(.945 -.328 .328 .945 -10.09 3.695)"/><g fill="#130c49"><path d="m7.173 34.573a3.294 3.294 0 0 1 -1.084-6.405.585.585 0 0 1 .724.278l1.835 5.277a.5.5 0 0 1 -.309.636l-.089.031a3.268 3.268 0 0 1 -1.077.183zm-1.124-5.281a2.286 2.286 0 0 0 1.478 4.252z"/><path d="m2.735 27.875a.5.5 0 0 1 -.472-.336l-.576-1.657a4.936 4.936 0 0 1 1.061-4.971.5.5 0 1 1 .734.678 3.938 3.938 0 0 0 -.85 3.965l.576 1.657a.5.5 0 0 1 -.309.636.488.488 0 0 1 -.164.028z"/><path d="m5 20.525a.5.5 0 0 1 -.164-.972l.844-.293a.5.5 0 0 1 .328.944l-.844.294a.49.49 0 0 1 -.164.027z"/><path d="m40.01 29.068a1.949 1.949 0 0 1 -1.839-1.306l-4.53-13.031a1.945 1.945 0 0 1 1.2-2.475l3.138-1.091a1.947 1.947 0 0 1 2.474 1.2l4.53 13.031a1.941 1.941 0 0 1 -1.2 2.475l-3.137 1.089a1.936 1.936 0 0 1 -.636.108zm-1.4-17.011a.949.949 0 0 0 -.308.052l-3.135 1.091a.945.945 0 0 0 -.582 1.2l4.53 13.032a.947.947 0 0 0 1.2.582l3.138-1.091a.945.945 0 0 0 .582-1.2l-4.53-13.032a.948.948 0 0 0 -.892-.634z"/><path d="m13.954 32.106a.517.517 0 0 1 -.217-.049.5.5 0 0 1 -.255-.286l-1.669-4.789a.5.5 0 0 1 .306-.636l23.265-8.124a.5.5 0 0 1 .637.308l1.668 4.788a.5.5 0 0 1 -.306.637l-23.263 8.123a.5.5 0 0 1 -.166.028zm-1.032-4.981 1.339 3.842 4.484-1.582 17.835-6.209-1.339-3.844-4.63 1.62z"/></g><path d="m44.146 48.185s3.454-18.746 16.777-16.4c12.016 2.116 10.127 15.87 6.2 20.026s-19.271 16.7-26.148 16.1c-4.378-.385-10.687-8.8-14.693-14.856a30.738 30.738 0 0 1 -5.213-16.062 21.826 21.826 0 0 1 .257-4.223s-5.214-4.761-4.081-9.6c.792-3.377 6.043-4.875 9.14-5.472a3.5 3.5 0 0 1 4.038 2.588c.431 1.843.435 4.762-.935 9.308a18.9 18.9 0 0 0 1.282 7.406s9.522 4.156 13.376 11.185z" fill="#fcd462"/><path d="m23.732 20.087a3.5 3.5 0 0 1 4.039 2.588c.431 1.842.435 4.762-.935 9.307a18.9 18.9 0 0 0 1.285 7.406s8.66 4.178 13.019 10.354a1.2 1.2 0 0 0 2.061-.124 17.037 17.037 0 0 0 .756-1.78c-4.357-5.757-13.187-10.838-13.187-10.838a18.9 18.9 0 0 1 -1.285-7.406c1.37-4.546 1.366-7.465.935-9.308a3.5 3.5 0 0 0 -4.038-2.586c-2.748.529-7.187 1.772-8.705 4.406a21.4 21.4 0 0 1 6.055-2.019z" fill="#f7be56"/><path d="m60.923 31.785a11.45 11.45 0 0 0 -11.153 4.147 11.06 11.06 0 0 1 8.5-1.758c12.02 2.116 10.13 15.87 6.201 20.026-.3.312-.662.676-1.077 1.074 1.61-1.385 2.914-2.6 3.726-3.463 3.93-4.155 5.819-17.911-6.197-20.026z" fill="#f7be56"/><path d="m69 32.971a.5.5 0 0 1 -.345-.138q-.328-.312-.681-.6a.5.5 0 1 1 .636-.771c.253.209.5.425.735.651a.5.5 0 0 1 -.345.862z" fill="#130c49"/><path d="m72.866 46.463a.6.6 0 0 1 -.084-.006.5.5 0 0 1 -.41-.577 16.635 16.635 0 0 0 -.518-7.954 12.952 12.952 0 0 0 -.951-2.185.5.5 0 0 1 .877-.482 14.145 14.145 0 0 1 1.02 2.352 17.64 17.64 0 0 1 .554 8.435.5.5 0 0 1 -.488.417z" fill="#130c49"/><path d="m41.477 68.43c-.185 0-.365-.007-.539-.023-4.475-.393-10.664-8.417-15.066-15.078a31.2 31.2 0 0 1 -5.296-16.329 22.888 22.888 0 0 1 .222-4.056c-.983-.961-5.1-5.325-4.032-9.892.857-3.657 6.339-5.234 9.531-5.849a4 4 0 0 1 4.62 2.965c.559 2.392.248 5.587-.922 9.5a18.35 18.35 0 0 0 1.172 6.957c1.323.6 8.882 4.248 12.782 10.241 1.08-4.2 5.477-17.617 17.071-15.573 5.743 1.011 8.035 4.507 8.946 7.261 1.61 4.868.021 10.963-2.473 13.6-3.815 4.038-18.593 16.275-26.016 16.276zm-14.434-50.294a2.934 2.934 0 0 0 -.557.053c-2.954.569-8.018 1.987-8.748 5.1-1.053 4.5 3.882 9.068 3.932 9.114a.5.5 0 0 1 .156.453 21.372 21.372 0 0 0 -.25 4.126 30.193 30.193 0 0 0 5.13 15.8c6.053 9.158 11.138 14.354 14.319 14.634 6.454.565 21.658-11.623 25.742-15.942 2.3-2.429 3.748-8.072 2.25-12.6-.827-2.5-2.914-5.664-8.171-6.59-12.676-2.232-16.164 15.814-16.2 16a.5.5 0 0 1 -.93.15c-3.724-6.803-13.043-10.934-13.137-10.976a.5.5 0 0 1 -.262-.266 19.235 19.235 0 0 1 -1.317-7.601.5.5 0 0 1 .022-.142c1.136-3.771 1.448-6.815.925-9.049a2.982 2.982 0 0 0 -2.904-2.264z" fill="#130c49"/><path d="m36.86 58.7a.953.953 0 0 1 -.25.64.933.933 0 0 1 -.65.27.91.91 0 0 1 -.63-.25c-.36-.35-.246-.229-.606-.619a.851.851 0 0 1 -.25-.64.94.94 0 0 1 .28-.63.891.891 0 0 1 .64-.25.92.92 0 0 1 .63.28c.35.37.216.229.556.559a.919.919 0 0 1 .28.64z" fill="#fff"/><path d="m49.376 60.69a.84.84 0 0 1 -.47.49 22.7 22.7 0 0 1 -6.746 1.91 5.166 5.166 0 0 1 -.57-.03 7.6 7.6 0 0 1 -3.55-1.46.895.895 0 0 1 -.24-1.25.9.9 0 0 1 .57-.38.953.953 0 0 1 .68.14 6.089 6.089 0 0 0 2.7 1.16c1.28.11 4.276-.8 6.436-1.74a.9.9 0 0 1 1.18.47.871.871 0 0 1 .01.69z" fill="#fff"/><path d="m10.89 39.234a1.948 1.948 0 0 1 -1.839-1.306l-4.53-13.028a1.947 1.947 0 0 1 1.2-2.475l3.136-1.091a1.95 1.95 0 0 1 2.476 1.2l4.53 13.03a1.946 1.946 0 0 1 -1.2 2.475l-3.137 1.091a1.941 1.941 0 0 1 -.636.104zm-1.395-17.011a.947.947 0 0 0 -.31.052l-3.137 1.091a.947.947 0 0 0 -.582 1.2l4.534 13.034a.948.948 0 0 0 1.2.582l3.137-1.091a.946.946 0 0 0 .582-1.2l-4.53-13.03a.948.948 0 0 0 -.892-.635z" fill="#130c49"/></svg>