<svg id="line_color" height="512" viewBox="0 0 74 74" width="512" xmlns="http://www.w3.org/2000/svg" data-name="line color"><path d="m72.014 22.6v-11.222a3.484 3.484 0 0 0 -3.483-3.484h-57.9a3.483 3.483 0 0 0 -3.483 3.484v11.222z" fill="#e1e6e9"/><path d="m7.153 22.6v44.51a3.483 3.483 0 0 0 3.483 3.484h57.9a3.484 3.484 0 0 0 3.483-3.484v-44.51z" fill="#e1e6e9"/><path d="m7.153 22.6v-11.222a3.483 3.483 0 0 1 3.483-3.484h57.9a3.484 3.484 0 0 1 3.483 3.484v11.222" fill="#E1c415"/><path d="m72.014 23.1a.5.5 0 0 1 -.5-.5v-11.222a2.986 2.986 0 0 0 -2.984-2.978h-57.894a2.986 2.986 0 0 0 -2.984 2.983v11.217a.5.5 0 0 1 -1 0v-11.222a3.988 3.988 0 0 1 3.984-3.978h57.894a3.988 3.988 0 0 1 3.984 3.983v11.217a.5.5 0 0 1 -.5.5z" fill="#130c49"/><path d="m51.446 40.882a54.371 54.371 0 0 0 -23.722 0v8.651a54.371 54.371 0 0 0 23.722 0z" fill="#9297ab"/><path d="m39.584 51.348a57.962 57.962 0 0 1 -11.962-1.325.5.5 0 0 1 -.4-.49v-8.651a.5.5 0 0 1 .4-.49 54.668 54.668 0 0 1 23.925 0 .5.5 0 0 1 .4.49v8.651a.5.5 0 0 1 -.4.49 57.964 57.964 0 0 1 -11.963 1.325zm-11.36-2.223a53.461 53.461 0 0 0 22.721 0v-7.835a53.493 53.493 0 0 0 -22.721 0z" fill="#130c49"/><rect fill="#9297ab" height="18.423" rx="4.07" width="8.452" x="51.442" y="36.233"/><path d="m55.824 55.156h-.312a4.575 4.575 0 0 1 -4.57-4.57v-10.286a4.575 4.575 0 0 1 4.57-4.57h.312a4.575 4.575 0 0 1 4.57 4.57v10.286a4.575 4.575 0 0 1 -4.57 4.57zm-.312-18.423a3.574 3.574 0 0 0 -3.57 3.57v10.283a3.574 3.574 0 0 0 3.57 3.57h.312a3.574 3.574 0 0 0 3.57-3.57v-10.286a3.574 3.574 0 0 0 -3.57-3.57z" fill="#130c49"/><rect fill="#9297ab" height="18.423" rx="4.07" width="8.452" x="19.273" y="36.233"/><g fill="#130c49"><path d="m23.654 55.156h-.312a4.575 4.575 0 0 1 -4.57-4.57v-10.286a4.575 4.575 0 0 1 4.57-4.57h.312a4.575 4.575 0 0 1 4.571 4.57v10.286a4.575 4.575 0 0 1 -4.571 4.57zm-.312-18.423a3.574 3.574 0 0 0 -3.57 3.57v10.283a3.574 3.574 0 0 0 3.57 3.57h.312a3.574 3.574 0 0 0 3.571-3.57v-10.286a3.574 3.574 0 0 0 -3.571-3.57z"/><path d="m65.772 73.956h-9.9a.5.5 0 1 1 0-1h9.9a.5.5 0 0 1 0 1z"/><path d="m53.44 73.956h-.74a.5.5 0 0 1 0-1h.737a.5.5 0 0 1 0 1z"/><path d="m4.562 10.053a.524.524 0 0 1 -.145-.021.5.5 0 0 1 -.334-.623 6.891 6.891 0 0 1 6.553-4.876h.85a.5.5 0 0 1 0 1h-.85a5.886 5.886 0 0 0 -5.596 4.167.5.5 0 0 1 -.478.353z"/><path d="m4.291 14.226a.5.5 0 0 1 -.5-.5v-1.073a.5.5 0 0 1 1 0v1.073a.5.5 0 0 1 -.5.5z"/></g><path d="m68.343 22.6v47.994h.188a3.484 3.484 0 0 0 3.483-3.484v-44.51z" fill="#d5d6db"/><path d="m68.343 23.165h3.671v-11.225a3.483 3.483 0 0 0 -3.483-3.483h-57.9a3.482 3.482 0 0 0 -3.478 3.483v-1.049h55.5a5.948 5.948 0 0 1 4.67 2.109 4.166 4.166 0 0 1 1.02 2.619z" fill="#E1c420"/><path d="m68.362 71.094h-57.557a4.157 4.157 0 0 1 -4.153-4.152v-55.4a4.157 4.157 0 0 1 4.153-4.142h57.557a4.156 4.156 0 0 1 4.152 4.151v55.4a4.157 4.157 0 0 1 -4.152 4.143zm-57.557-62.694a3.156 3.156 0 0 0 -3.153 3.151v55.4a3.156 3.156 0 0 0 3.153 3.152h57.557a3.156 3.156 0 0 0 3.152-3.152v-55.4a3.155 3.155 0 0 0 -3.152-3.151z" fill="#130c49"/><path d="m72.014 23.1h-64.862a.5.5 0 0 1 0-1h64.862a.5.5 0 0 1 0 1z" fill="#130c49"/><rect fill="#e1e6e9" height="10.183" rx="1.49" width="5.715" x="57.205" y="3.543"/><path d="m61.43 14.226h-2.73a1.993 1.993 0 0 1 -1.99-1.99v-7.2a1.993 1.993 0 0 1 1.99-1.994h2.73a1.993 1.993 0 0 1 1.99 1.991v7.2a1.993 1.993 0 0 1 -1.99 1.993zm-2.73-10.184a.992.992 0 0 0 -.99.991v7.2a.991.991 0 0 0 .99.99h2.73a.991.991 0 0 0 .99-.99v-7.2a.992.992 0 0 0 -.99-.991z" fill="#130c49"/><rect fill="#e1e6e9" height="10.183" rx="1.49" width="5.715" x="16.246" y="3.543"/><path d="m20.471 14.226h-2.735a1.993 1.993 0 0 1 -1.99-1.99v-7.2a1.993 1.993 0 0 1 1.99-1.991h2.735a1.994 1.994 0 0 1 1.991 1.991v7.2a1.993 1.993 0 0 1 -1.991 1.99zm-2.735-10.184a.992.992 0 0 0 -.99.991v7.2a.991.991 0 0 0 .99.99h2.735a.991.991 0 0 0 .991-.99v-7.2a.992.992 0 0 0 -.991-.991z" fill="#130c49"/><g fill="#fff"><path d="m21.833 50.2a.643.643 0 0 1 -.643-.644v-6.087a.644.644 0 1 1 1.287 0v6.084a.644.644 0 0 1 -.644.647z"/><path d="m21.833 41.882a.644.644 0 0 1 -.643-.644v-.762a.644.644 0 1 1 1.287 0v.762a.644.644 0 0 1 -.644.644z"/></g></svg>