<svg id="line_color" height="512" viewBox="0 0 74 74" width="512" xmlns="http://www.w3.org/2000/svg" data-name="line color"><circle cx="15.498" cy="10.889" fill="#fcd462" r="6.636"/><path d="m64.656 29.992-21.656 11.008-5.1 27.716a2.733 2.733 0 0 1 -2.9 2.276c-.076-.005-.163-.023-.25-.029a2.735 2.735 0 0 1 -2.236-3.14l2.236-25.323-10.568-12.592-3.8 14.639a2.186 2.186 0 0 1 -2.311 1.817 1.247 1.247 0 0 1 -.206-.026 2.161 2.161 0 0 1 -1.78-2.505l2.882-19.412v-.01l-.03-.035c.173-4.808 5.315-9.267 9.75-9.079h.032c.088-.005 12.342 1.018 12.342 1.018l-1.49-10.842a2.18 2.18 0 0 1 4.319-.6l1.864 13.551a2.143 2.143 0 0 1 -.581 1.793 2.2 2.2 0 0 1 -1.767.677l-10.7-.907 11.388 13.38 17.819-8.083a2.724 2.724 0 1 1 2.743 4.708z" fill="#fcd462"/><g fill="#f7be56"><path d="m15.992 4.271a6.631 6.631 0 0 0 -7.078 5.855 6.632 6.632 0 0 1 12.077 4.256c-.007.092-.023.18-.033.27a6.628 6.628 0 0 0 -4.966-10.381z"/><path d="m39.673 6.217a2.168 2.168 0 0 1 .629-.2c1.192-.162 1.493.664 1.656 1.857l1.761 12.8a1.991 1.991 0 0 0 1.454-.456 2.143 2.143 0 0 0 .581-1.793l-1.864-13.548a2.18 2.18 0 0 0 -4.319.6z"/><path d="m65.645 26.262a2.729 2.729 0 0 0 -3.732-.978l-17.819 8.083-11.358-13.22-2.356 1.541 12.589 14.679 17.819-8.083a2.685 2.685 0 0 1 3.991 1.616 2.724 2.724 0 0 0 .866-3.638z"/></g><g fill="#323c6b"><path d="m51.729 40.354a.5.5 0 0 1 -.231-.943l7.552-3.948a.5.5 0 1 1 .463.886l-7.552 3.951a.494.494 0 0 1 -.232.054z"/><path d="m61.34 35.3a.5.5 0 0 1 -.21-.954l.755-.348a.5.5 0 1 1 .42.908l-.755.349a.509.509 0 0 1 -.21.045z"/><path d="m13.909 38.548a.613.613 0 0 1 -.074-.005.5.5 0 0 1 -.421-.568l1.27-8.548a.506.506 0 0 1 .567-.422.5.5 0 0 1 .421.568l-1.272 8.549a.5.5 0 0 1 -.491.426z"/><path d="m15.55 27.5a.613.613 0 0 1 -.074 0 .5.5 0 0 1 -.421-.568l.1-.688a.5.5 0 0 1 .99.147l-.1.687a.5.5 0 0 1 -.495.422z"/><path d="m35.212 71.5c-.081 0-.163 0-.245-.009l-.249-.03a3.253 3.253 0 0 1 -2.694-3.718l2.209-25.08-9.81-11.691-3.56 13.7a2.66 2.66 0 0 1 -2.832 2.19 1.9 1.9 0 0 1 -.273-.036 2.659 2.659 0 0 1 -2.169-3.08l2.861-19.27a.42.42 0 0 1 -.015-.12 9.874 9.874 0 0 1 3.365-6.694 10.007 10.007 0 0 1 6.905-2.862c.031 0 .105 0 11.774.97l-1.4-10.227a2.679 2.679 0 0 1 4.269-2.5 2.64 2.64 0 0 1 1.04 1.768l1.861 13.549a2.629 2.629 0 0 1 -.716 2.208 2.706 2.706 0 0 1 -2.173.828l-9.486-.8 10.356 12.16 17.476-7.927a3.223 3.223 0 0 1 3.2 5.6l-.024.013-21.436 10.9-5.058 27.464a3.215 3.215 0 0 1 -3.176 2.694zm-.37-1.03c.016 0 .068.007.118.014a2.24 2.24 0 0 0 2.44-1.851l5.108-27.723a.5.5 0 0 1 .265-.356l21.644-11a2.224 2.224 0 1 0 -2.253-3.836l-17.864 8.105a.5.5 0 0 1 -.588-.132l-11.387-13.376a.5.5 0 0 1 -.063-.552.49.49 0 0 1 .486-.27l10.7.907a1.686 1.686 0 0 0 1.361-.521 1.641 1.641 0 0 0 .45-1.379l-1.859-13.555a1.652 1.652 0 0 0 -.651-1.105 1.679 1.679 0 0 0 -2.678 1.565l1.483 10.845a.507.507 0 0 1 -.132.412.494.494 0 0 1 -.4.154c-4.141-.345-12.043-1-12.319-1.017a9.075 9.075 0 0 0 -6.219 2.6 8.925 8.925 0 0 0 -3.04 5.883.461.461 0 0 1 .024.177l-2.893 19.448a1.664 1.664 0 0 0 1.369 1.938 1.247 1.247 0 0 0 .161.021 1.682 1.682 0 0 0 1.781-1.4l3.814-14.684a.506.506 0 0 1 .374-.362.5.5 0 0 1 .493.167l10.566 12.592a.494.494 0 0 1 .115.365l-2.232 25.323a2.252 2.252 0 0 0 1.822 2.6z"/></g><path d="m37.285 51.793a.673.673 0 0 1 -.089-.005.65.65 0 0 1 -.555-.732l.145-1.065a.656.656 0 0 1 .732-.556.649.649 0 0 1 .555.732l-.145 1.064a.65.65 0 0 1 -.643.562z" fill="#fff"/><path d="m35.876 61.968a.677.677 0 0 1 -.089-.006.65.65 0 0 1 -.556-.732l1.076-7.73a.649.649 0 1 1 1.287.176l-1.075 7.734a.65.65 0 0 1 -.643.558z" fill="#fff"/><path d="m15.51 18.026c-.18 0-.361-.007-.542-.021a7.092 7.092 0 1 1 .542.021zm-6.131-7.593a6.136 6.136 0 1 0 6.576-5.663 6.142 6.142 0 0 0 -6.576 5.663z" fill="#323c6b"/></svg>