<svg id="line_color" height="512" viewBox="0 0 74 74" width="512" xmlns="http://www.w3.org/2000/svg" data-name="line color"><path d="m45.511 20.714 9.3-9.8 5.181 4.864-13.432 13.642v16.917l1.38 20.8a3.621 3.621 0 0 1 -2.822 3.773 3.621 3.621 0 0 1 -4.4-3.234l-1.771-21.34h-2.5l-1.771 21.34a3.622 3.622 0 0 1 -4.4 3.234 3.621 3.621 0 0 1 -2.822-3.773l1.381-20.8v-16.917l-13.435-13.64 5.181-4.864 9.3 9.8a8.251 8.251 0 0 0 5.987 2.573h3.659a8.251 8.251 0 0 0 5.984-2.575z" fill="#E1c415"/><path d="m13.629 17.955a.5.5 0 0 1 -.343-.865l8.45-7.943a.5.5 0 0 1 .686.729l-8.45 7.943a.5.5 0 0 1 -.343.136z" fill="#130c49"/><rect fill="#e1e6e9" height="9.14" rx=".981" transform="matrix(.707 -.707 .707 .707 1.526 18.936)" width="4.837" x="21.202" y="3.056"/><path d="m25.143 12.662a1.473 1.473 0 0 1 -1.048-.434l-5.075-5.076a1.479 1.479 0 0 1 0-2.095l2.032-2.032a1.515 1.515 0 0 1 2.094 0l5.077 5.075a1.484 1.484 0 0 1 0 2.1l-2.034 2.033a1.471 1.471 0 0 1 -1.046.429zm-3.043-9.071a.479.479 0 0 0 -.341.141l-2.032 2.033a.478.478 0 0 0 0 .68l5.073 5.076a.494.494 0 0 0 .68 0l2.034-2.033a.483.483 0 0 0 0-.681l-5.075-5.075a.474.474 0 0 0 -.339-.141z" fill="#130c49"/><rect fill="#e1e6e9" height="9.14" rx=".981" transform="matrix(.707 -.707 .707 .707 -9.982 13.856)" width="4.837" x="9.316" y="14.407"/><path d="m13.256 24.011a1.475 1.475 0 0 1 -1.047-.432l-5.075-5.079a1.479 1.479 0 0 1 0-2.095l2.032-2.033a1.518 1.518 0 0 1 2.095 0l5.075 5.076a1.479 1.479 0 0 1 0 2.095l-2.036 2.036a1.481 1.481 0 0 1 -1.044.432zm-3.042-9.07a.48.48 0 0 0 -.341.142l-2.032 2.032a.477.477 0 0 0 0 .679l5.075 5.077a.483.483 0 0 0 .681 0l2.032-2.033a.478.478 0 0 0 0-.68l-5.075-5.075a.479.479 0 0 0 -.34-.142z" fill="#130c49"/><path d="m61.682 17.864a.5.5 0 0 1 -.343-.136l-8.45-7.943a.5.5 0 1 1 .685-.728l8.45 7.943a.5.5 0 0 1 -.342.864z" fill="#130c49"/><rect fill="#e1e6e9" height="9.14" rx=".981" transform="matrix(-.707 -.707 .707 -.707 82.912 49.414)" width="4.837" x="49.272" y="2.965"/><path d="m50.169 12.57a1.48 1.48 0 0 1 -1.048-.433l-2.032-2.037a1.484 1.484 0 0 1 0-2.095l5.075-5.075a1.517 1.517 0 0 1 2.095 0l2.033 2.033a1.484 1.484 0 0 1 0 2.1l-5.075 5.075a1.482 1.482 0 0 1 -1.048.432zm3.043-9.07a.479.479 0 0 0 -.341.141l-5.071 5.075a.482.482 0 0 0 0 .681l2.032 2.033a.483.483 0 0 0 .682 0l5.075-5.075a.482.482 0 0 0 0-.68l-2.037-2.034a.478.478 0 0 0 -.34-.141z" fill="#130c49"/><rect fill="#e1e6e9" height="9.14" rx=".981" transform="matrix(-.707 -.707 .707 -.707 95.177 77.196)" width="4.837" x="61.158" y="14.316"/><path d="m62.055 23.921a1.468 1.468 0 0 1 -1.047-.434l-2.033-2.032a1.482 1.482 0 0 1 0-2.095l5.075-5.075a1.516 1.516 0 0 1 2.095 0l2.033 2.032a1.484 1.484 0 0 1 0 2.095l-5.078 5.075a1.475 1.475 0 0 1 -1.045.434zm3.043-9.07a.479.479 0 0 0 -.341.141l-5.075 5.075a.482.482 0 0 0 0 .681l2.033 2.032a.493.493 0 0 0 .681 0l5.075-5.08a.483.483 0 0 0 0-.681l-2.033-2.032a.478.478 0 0 0 -.338-.136z" fill="#130c49"/><circle cx="37.695" cy="13.581" fill="#E1c415" r="6.919"/><path d="m45.98 46.34 1.38 20.8a3.6 3.6 0 0 1 -4.87 3.62 3.621 3.621 0 0 0 2.34-3.62l-1.38-20.8v-17.84l14.07-14.5 1.89 1.78-13.43 13.64z" fill="#af9812"/><path d="m37.7 20.294a6.9 6.9 0 0 1 -5.321-2.5 6.919 6.919 0 0 0 8.61-10.509 6.919 6.919 0 0 1 -3.289 13.009z" fill="#af9812"/><g fill="#130c49"><path d="m47.875 73.466a.5.5 0 0 1 -.267-.923 6.1 6.1 0 0 0 2.827-5.571l-.105-1.567a.5.5 0 0 1 .466-.532.494.494 0 0 1 .532.465l.1 1.568a7.1 7.1 0 0 1 -3.291 6.483.5.5 0 0 1 -.262.077z"/><path d="m44.321 74.5a6.581 6.581 0 0 1 -.692-.037.5.5 0 0 1 -.444-.55.509.509 0 0 1 .549-.444 5.807 5.807 0 0 0 1.33-.018.5.5 0 0 1 .122.992 6.98 6.98 0 0 1 -.865.057z"/><path d="m25.829 46.738a.5.5 0 0 1 -.5-.5v-7.738a.5.5 0 0 1 1 0v7.738a.5.5 0 0 1 -.5.5z"/><path d="m25.829 36.688a.5.5 0 0 1 -.5-.5v-1.375a.5.5 0 0 1 1 0v1.375a.5.5 0 0 1 -.5.5z"/><path d="m44.326 71.5a4.122 4.122 0 0 1 -4.106-3.781l-1.734-20.882h-1.586l-1.73 20.881a4.122 4.122 0 0 1 -8.22-.614l1.38-20.8v-16.68l-13.285-13.494a.493.493 0 0 1 -.144-.36.5.5 0 0 1 .159-.355l5.18-4.864a.5.5 0 0 1 .7.021l9.3 9.8a7.789 7.789 0 0 0 5.625 2.417h3.658a7.78 7.78 0 0 0 5.624-2.417l9.3-9.8a.5.5 0 0 1 .7-.021l5.182 4.864a.5.5 0 0 1 .015.715l-13.284 13.494v16.713l1.379 20.763a4.123 4.123 0 0 1 -4.113 4.4zm-7.884-25.663h2.5a.5.5 0 0 1 .5.459l1.772 21.339a3.121 3.121 0 0 0 6.225-.464l-1.38-20.8v-16.952a.5.5 0 0 1 .143-.35l13.07-13.275-4.445-4.173-8.954 9.438a8.789 8.789 0 0 1 -6.35 2.728h-3.658a8.792 8.792 0 0 1 -6.349-2.728l-8.954-9.438-4.445 4.173 13.069 13.275a.5.5 0 0 1 .143.35v16.918l-1.381 20.834a3.122 3.122 0 0 0 6.226.464l1.77-21.335a.5.5 0 0 1 .498-.463z"/></g><path d="m21.271 16.315a.648.648 0 0 1 -.462-.194l-.2-.209a.65.65 0 1 1 .922-.912l.2.209a.649.649 0 0 1 -.463 1.106z" fill="#fff"/><path d="m27.657 22.961a.648.648 0 0 1 -.463-.194l-4.714-4.948a.65.65 0 1 1 .926-.913l4.714 4.949a.65.65 0 0 1 -.463 1.106z" fill="#fff"/><path d="m37.694 21a7.419 7.419 0 1 1 7.419-7.419 7.428 7.428 0 0 1 -7.419 7.419zm0-13.838a6.419 6.419 0 1 0 6.419 6.419 6.427 6.427 0 0 0 -6.419-6.419z" fill="#130c49"/></svg>