<svg xmlns="http://www.w3.org/2000/svg" height="512" viewBox="0 0 512 512" width="512"><g><g><path d="m109.853 38.625c4.142 0 7.5-3.358 7.5-7.5v-16.125h59.22v74.495c-.001.032 0 .064 0 .096v23.896c0 31.557 18.571 58.86 45.373 71.61.406.233.836.425 1.281.579 9.999 4.541 21.09 7.093 32.773 7.093 11.66 0 22.73-2.542 32.714-7.066.422-.147.827-.331 1.211-.547 26.871-12.724 45.502-40.061 45.502-71.668v-23.715c0-.031.001-.062 0-.093v-74.68h59.22v110.714c0 35.013 9.54 69.39 27.588 99.412 1.407 2.341 3.889 3.637 6.435 3.637 1.315 0 2.647-.346 3.857-1.073 3.55-2.134 4.698-6.742 2.563-10.292-16.645-27.689-25.443-59.393-25.443-91.684v-114.214c0-6.341-5.159-11.5-11.5-11.5h-66.22c-6.341 0-11.5 5.159-11.5 11.5v18.993c-16.229 7.288-39.402 15.077-64.387 15.077-24.972 0-48.192-7.797-64.467-15.092v-18.978c0-6.341-5.159-11.5-11.5-11.5h-66.22c-6.341 0-11.5 5.159-11.5 11.5v19.625c0 4.142 3.358 7.5 7.5 7.5zm81.72 74.862v-2.895c8.81 12.638 17.528 29.735 23.202 52.249-14.168-11.801-23.202-29.542-23.202-49.354zm105.579 49.417c5.696-22.518 14.442-39.599 23.275-52.213v2.797c0 19.845-9.064 37.615-23.275 49.416zm-41.112-102.334c24.516 0 47.247-6.695 64.387-13.745v40.012c-14.878 16.037-33.064 43.475-40.87 86.462-7.302 2.873-15.244 4.47-23.557 4.47-8.343 0-16.311-1.607-23.635-4.5-7.778-43.021-25.937-70.514-40.792-86.593v-39.87c17.181 7.059 39.954 13.764 64.467 13.764z"></path><path d="m477.5 282.624c0-.394-.031-.787-.093-1.175-.303-1.911-1.075-5.485-2.837-7.945l-21.667-30.251c-2.412-3.367-7.097-4.143-10.464-1.73-3.368 2.412-4.142 7.097-1.73 10.464l21.425 29.914c.113.327.258.884.365 1.402-.119 51.545-13.85 88.709-25.377 110.846-9.649 18.53-19.403 29.912-23.452 34.236h-315.339c-4.059-4.334-13.808-15.715-23.453-34.236-11.556-22.193-25.328-59.494-25.378-111.241.049-.256.156-.627.242-.833l31.506-43.988c23.62-32.978 36.105-71.835 36.105-112.372v-60.913c0-4.142-3.358-7.5-7.5-7.5s-7.5 3.358-7.5 7.5v60.913c0 37.385-11.515 73.223-33.299 103.638l-31.624 44.15c-2.149 3.001-2.93 7.099-2.93 9.121 0 55.342 14.931 95.36 27.457 119.185 10.531 20.031 21.103 32.285 25.734 37.164v59.527c0 7.444 6.056 13.5 13.5 13.5h27.144c4.142 0 7.5-3.358 7.5-7.5s-3.358-7.5-7.5-7.5h-25.644v-53.616h306.618v53.616h-249.719c-4.142 0-7.5 3.358-7.5 7.5s3.358 7.5 7.5 7.5h251.219c7.444 0 13.5-6.056 13.5-13.5v-59.527c4.63-4.879 15.203-17.133 25.734-37.164 12.526-23.825 27.457-63.843 27.457-119.185z"></path></g></g></svg>